<svg xmlns="http://www.w3.org/2000/svg" viewBox="0 0 512 512" role="img" aria-label="Сердитый робот-кит АдминКИТ выпускает пар"><rect width="512" height="512" fill="none"/><g filter="url(#s)"><path d="M82 287c15-96 101-162 214-144 66 11 107 49 133 94 16 28 30 58 61 77-41 20-85 18-119-3-36 49-106 74-179 58-73-16-122-46-110-82Z" fill="#07344f" stroke="#fff" stroke-width="28" stroke-linejoin="round"/><path d="M95 276c37 52 107 83 195 77-47 48-141 56-191 10-25-23-28-59-4-87Z" fill="#f7fbff"/><path d="M95 273c58-42 144-48 243-28 35 7 67 21 93 42-41-62-108-103-199-100-75 2-124 36-137 86Z" fill="#0f5273" opacity=".72"/><path d="M73 199c-28-37-11-70 28-67 10-32 61-30 70 2 38-4 54 43 21 61" fill="#fff" stroke="#07344f" stroke-width="12" stroke-linecap="round"/><path d="M104 174l29 43M150 171l15 38" stroke="#07344f" stroke-width="10" stroke-linecap="round"/><path d="M245 245h88" stroke="#05131d" stroke-width="30" stroke-linecap="round"/><circle cx="329" cy="244" r="15" fill="#19d9e6"/><path d="M314 234l31 16" stroke="#fff" stroke-width="6" stroke-linecap="round"/><path d="M182 313c52 15 109 12 160-7" stroke="#cbd5dc" stroke-width="8" stroke-linecap="round" opacity=".7"/><path d="M140 205l-38-30M158 190l-23-42" stroke="#19d9e6" stroke-width="12" stroke-linecap="round"/></g><defs><filter id="s" x="0" y="0" width="512" height="512"><feDropShadow dx="0" dy="10" stdDeviation="10" flood-opacity=".22"/></filter></defs></svg>
