<svg xmlns="http://www.w3.org/2000/svg" viewBox="0 0 512 512" role="img" aria-label="Робот-кит АдминКИТ показывает лайк и знак подтверждения"><rect width="512" height="512" fill="none"/><g filter="url(#s)"><path d="M78 296c14-91 96-151 204-135 70 10 114 49 142 96 15 25 30 54 66 76-42 18-90 13-125-12-35 42-99 63-168 50-72-14-131-43-119-75Z" fill="#07344f" stroke="#fff" stroke-width="28" stroke-linejoin="round"/><path d="M93 286c35 48 101 78 184 74-45 45-135 52-183 9-25-23-28-56-1-83Z" fill="#f7fbff"/><path d="M98 278c57-41 144-47 239-27 38 8 70 23 93 44-39-58-108-98-200-94-74 3-119 33-132 77Z" fill="#0f5273" opacity=".72"/><path d="M245 245h80" stroke="#05131d" stroke-width="30" stroke-linecap="round"/><path d="M306 240c12 8 27 8 39 0" stroke="#19d9e6" stroke-width="10" stroke-linecap="round" fill="none"/><path d="M76 216l35 34 78-92" stroke="#19d9e6" stroke-width="24" stroke-linecap="round" stroke-linejoin="round" fill="none"/><path d="M96 382c27-27 55-26 84-8-33 22-60 25-84 8Z" fill="#07344f" stroke="#fff" stroke-width="16"/><path d="M178 323c55 13 110 10 159-10" stroke="#cbd5dc" stroke-width="8" stroke-linecap="round" opacity=".7"/></g><defs><filter id="s" x="0" y="0" width="512" height="512"><feDropShadow dx="0" dy="10" stdDeviation="10" flood-opacity=".22"/></filter></defs></svg>
