<svg xmlns="http://www.w3.org/2000/svg" viewBox="0 0 512 512" role="img" aria-label="Робот-кит АдминКИТ празднует с конфетти"><rect width="512" height="512" fill="none"/><g filter="url(#s)"><path d="M76 292c16-94 102-157 214-138 65 11 108 48 134 92 17 29 31 58 65 78-42 19-88 16-123-8-37 47-105 70-177 55-71-15-125-45-113-79Z" fill="#07344f" stroke="#fff" stroke-width="28" stroke-linejoin="round"/><path d="M92 282c36 51 103 81 189 76-46 47-139 55-188 10-25-23-28-58-1-86Z" fill="#f7fbff"/><path d="M100 272c56-41 143-47 239-27 36 7 68 22 93 43-41-60-108-100-198-97-75 3-121 34-134 81Z" fill="#0f5273" opacity=".72"/><path d="M248 244h82" stroke="#05131d" stroke-width="30" stroke-linecap="round"/><path d="M307 239c12 9 27 9 40 0" stroke="#19d9e6" stroke-width="10" stroke-linecap="round" fill="none"/><circle cx="97" cy="157" r="15" fill="#ff4f9a"/><circle cx="379" cy="143" r="13" fill="#21cdda"/><path d="M143 126l28 28M420 191l-31 18M233 112l18 36M319 107l-27 23" stroke="#ffc83d" stroke-width="14" stroke-linecap="round"/><path d="M171 331c55 15 114 11 168-10" stroke="#cbd5dc" stroke-width="8" stroke-linecap="round" opacity=".7"/><text x="208" y="308" fill="#19d9e6" font-size="42" font-family="Arial, sans-serif" font-weight="700">KIT</text></g><defs><filter id="s" x="0" y="0" width="512" height="512"><feDropShadow dx="0" dy="10" stdDeviation="10" flood-opacity=".22"/></filter></defs></svg>
