<svg xmlns="http://www.w3.org/2000/svg" viewBox="0 0 512 512" role="img" aria-label="Грустный робот-кит АдминКИТ плачет"><rect width="512" height="512" fill="none"/><g filter="url(#s)"><path d="M78 294c15-92 98-154 207-137 68 11 110 48 138 94 16 27 31 57 66 77-41 20-87 17-123-7-36 46-104 69-176 54-72-15-125-45-112-81Z" fill="#07344f" stroke="#fff" stroke-width="28" stroke-linejoin="round"/><path d="M94 284c35 50 103 81 188 75-46 46-138 54-188 9-24-22-28-56 0-84Z" fill="#f7fbff"/><path d="M100 274c57-41 142-47 239-27 36 8 68 22 93 43-41-59-108-99-199-96-75 3-120 34-133 80Z" fill="#0f5273" opacity=".72"/><path d="M248 245h84" stroke="#05131d" stroke-width="30" stroke-linecap="round"/><path d="M306 250c14-11 29-11 43 0" stroke="#19d9e6" stroke-width="10" stroke-linecap="round" fill="none"/><path d="M326 273c-11 21-20 37-20 51 0 15 12 25 25 25s25-10 25-25c0-14-9-30-30-51Z" fill="#19d9e6" stroke="#fff" stroke-width="6"/><path d="M170 333c54 14 112 10 166-10" stroke="#cbd5dc" stroke-width="8" stroke-linecap="round" opacity=".7"/><text x="203" y="309" fill="#19d9e6" font-size="38" font-family="Arial, sans-serif" font-weight="700">KIT</text></g><defs><filter id="s" x="0" y="0" width="512" height="512"><feDropShadow dx="0" dy="10" stdDeviation="10" flood-opacity=".22"/></filter></defs></svg>
