<svg xmlns="http://www.w3.org/2000/svg" viewBox="0 0 512 512" role="img" aria-label="Удивлённый робот-кит АдминКИТ с восклицательным знаком"><rect width="512" height="512" fill="none"/><g filter="url(#s)"><path d="M78 292c16-94 101-157 212-138 66 11 109 48 136 93 16 28 30 57 64 77-42 19-88 16-123-8-37 47-105 70-177 55-71-15-125-45-112-79Z" fill="#07344f" stroke="#fff" stroke-width="28" stroke-linejoin="round"/><path d="M94 282c35 50 102 81 188 76-46 46-138 54-188 9-25-22-28-57 0-85Z" fill="#f7fbff"/><path d="M101 272c56-41 143-47 239-27 36 7 68 22 93 43-41-60-108-99-199-97-75 3-120 34-133 81Z" fill="#0f5273" opacity=".72"/><path d="M247 244h83" stroke="#05131d" stroke-width="30" stroke-linecap="round"/><circle cx="329" cy="244" r="15" fill="#19d9e6"/><circle cx="329" cy="244" r="8" fill="#fff"/><text x="102" y="184" fill="#19d9e6" font-size="104" font-family="Arial, sans-serif" font-weight="900">!</text><path d="M170 331c55 15 114 11 168-10" stroke="#cbd5dc" stroke-width="8" stroke-linecap="round" opacity=".7"/><text x="207" y="308" fill="#19d9e6" font-size="38" font-family="Arial, sans-serif" font-weight="700">KIT</text></g><defs><filter id="s" x="0" y="0" width="512" height="512"><feDropShadow dx="0" dy="10" stdDeviation="10" flood-opacity=".22"/></filter></defs></svg>
